<?xml version="1.0" encoding="utf-8"?>
<!-- Generator: Adobe Illustrator 25.0.0, SVG Export Plug-In . SVG Version: 6.00 Build 0)  -->
<svg version="1.1" id="Layer_1" xmlns="http://www.w3.org/2000/svg" xmlns:xlink="http://www.w3.org/1999/xlink" x="0px" y="0px"
	 viewBox="0 0 841.89 595.28" style="enable-background:new 0 0 841.89 595.28;" xml:space="preserve">
<style type="text/css">
	.st0{fill:#010101;}
	.st1{fill:#2BB673;stroke:#000000;stroke-miterlimit:10;}
	.st2{font-family:'MicrosoftYaHeiUI';}
	.st3{font-size:12px;}
	.st4{fill:#F9ED32;stroke:#000000;stroke-miterlimit:10;}
	.st5{fill:none;stroke:#000000;stroke-miterlimit:10;}
	.st6{fill:#F1F2F2;stroke:#000000;stroke-miterlimit:10;}
	.st7{fill:#D1D3D4;stroke:#000000;stroke-miterlimit:10;}
	.st8{fill:none;}
	.st9{font-size:20px;}
	.st10{fill:#27AAE1;stroke:#000000;stroke-miterlimit:10;}
	.st11{stroke:#000000;stroke-miterlimit:10;}
	.st12{fill:none;stroke:#000000;stroke-width:0.5;stroke-miterlimit:10;}
</style>
<g>
	<path class="st0" d="M620.12,390.66h56.66c0.82,0,1.43-0.58,1.43-1.33v-28.12c0-1.5-1.29-2.71-3-2.71h-53.53c-1.63,0-3,1.21-3,2.71
		v28.06C618.69,390.02,619.37,390.66,620.12,390.66z M622.09,386.05v-24.43h52.71v24.43C674.8,386.05,622.09,386.05,622.09,386.05z"
		/>
	<path class="st0" d="M682.29,413.19l-4.15-21.09h-59.25l0,0l-4.15,21.09c-0.14,0.69-1.23,2.88,2.18,2.88h63.2
		C683.52,416.07,682.43,413.82,682.29,413.19z M677.52,400.11l0.2,1.09c0.07,0.29-0.34,0.58-0.82,0.58h-2.18
		c-0.48,0-0.95-0.23-0.95-0.58l-0.14-1.09c-0.07-0.29,0.34-0.58,0.82-0.58h2.11C677.05,399.53,677.52,399.76,677.52,400.11z
		 M677.11,397.51l0.2,1.04c0.07,0.29-0.34,0.58-0.82,0.58h-2.11c-0.48,0-0.89-0.23-0.95-0.58l-0.14-1.04
		c-0.07-0.29,0.34-0.52,0.82-0.52h2.11C676.64,396.94,677.05,397.23,677.11,397.51z M673.1,400.91c0.07,0.46-0.54,0.86-1.36,0.86
		h-2.32c-0.82,0-1.5-0.4-1.57-0.86l-0.2-1.79h-0.61c-0.68,0-1.29-0.35-1.36-0.75l-0.07-0.81c-0.07-0.4,0.48-0.69,1.16-0.69h4.49
		c0.68,0,1.29,0.35,1.36,0.69 M673.71,394.46h2.04c0.48,0,0.89,0.23,0.95,0.52l0.14,1.04c0.07,0.29-0.27,0.52-0.75,0.52h-2.11
		c-0.48,0-0.89-0.23-0.95-0.52l-0.14-1.04C672.89,394.69,673.23,394.46,673.71,394.46z M669.28,394.46h2.04
		c0.48,0,0.89,0.23,0.95,0.52l0.14,1.04c0.07,0.29-0.34,0.52-0.82,0.52h-2.11c-0.48,0-0.89-0.23-0.95-0.52l-0.14-1.04
		C668.47,394.69,668.81,394.46,669.28,394.46z M664.86,394.46h2.04c0.48,0,0.89,0.23,0.89,0.52l0.14,1.04
		c0,0.29-0.34,0.52-0.82,0.52h-2.11c-0.48,0-0.89-0.23-0.89-0.52l-0.07-1.04C664.04,394.69,664.38,394.46,664.86,394.46z
		 M664.99,398.61c0,0.29-0.34,0.52-0.75,0.52h-1.63c-0.41,0-0.82-0.23-0.82-0.52l-0.07-1.15c0-0.29,0.34-0.52,0.75-0.52h1.63
		c0.41,0,0.82,0.23,0.82,0.52L664.99,398.61z M660.43,394.46h2.04c0.48,0,0.89,0.23,0.89,0.52l0.07,1.04c0,0.29-0.34,0.52-0.82,0.52
		h-2.11c-0.48,0-0.89-0.23-0.89-0.52l-0.07-1.04C659.61,394.69,659.95,394.46,660.43,394.46z M660.29,399.13h-2.11
		c-0.48,0-0.89-0.23-0.89-0.58l-0.07-1.04c0-0.29,0.34-0.52,0.82-0.52h2.11c0.48,0,0.89,0.23,0.89,0.52l0.07,1.04
		C661.18,398.9,660.77,399.13,660.29,399.13z M660.63,401.2c0,0.35-0.34,0.58-0.89,0.58h-2.11c-0.48,0-0.89-0.29-0.95-0.58
		l-0.07-1.15c0-0.29,0.41-0.58,0.89-0.58h2.11c0.48,0,0.89,0.23,0.95,0.58L660.63,401.2z M656,394.46h2.04
		c0.48,0,0.89,0.23,0.89,0.52l0.07,1.04c0,0.29-0.34,0.52-0.82,0.52h-2.11c-0.48,0-0.89-0.23-0.89-0.52l-0.07-1.04
		C655.19,394.69,655.53,394.46,656,394.46z M655.73,399.13h-2.11c-0.48,0-0.89-0.23-0.89-0.58v-1.04c0-0.29,0.41-0.52,0.89-0.52
		h2.11c0.48,0,0.89,0.23,0.89,0.52l0.07,1.04C656.62,398.9,656.21,399.13,655.73,399.13z M656.07,401.2c0,0.35-0.41,0.58-0.89,0.58
		h-2.11c-0.48,0-0.89-0.29-0.89-0.58v-1.15c0-0.29,0.41-0.58,0.89-0.58h2.11c0.48,0,0.89,0.23,0.95,0.58L656.07,401.2z
		 M651.58,394.46h2.04c0.48,0,0.89,0.23,0.89,0.52l0.07,1.04c0,0.29-0.34,0.52-0.82,0.52h-2.11c-0.48,0-0.89-0.23-0.89-0.52v-1.04
		C650.76,394.69,651.1,394.46,651.58,394.46z M626.38,399.13c-0.48,0-0.82-0.23-0.82-0.58l0.14-1.04c0.07-0.29,0.48-0.52,0.95-0.52
		h2.11c0.48,0,0.82,0.23,0.82,0.52l-0.14,1.04c0,0.29-0.48,0.58-0.95,0.58H626.38z M628.63,400.22l-0.07,0.86
		c-0.07,0.4-0.54,0.69-1.16,0.69h-3.68c-0.61,0-1.09-0.35-1.02-0.69l0.14-0.86c0.07-0.4,0.61-0.69,1.23-0.69h3.61
		C628.22,399.53,628.63,399.82,628.63,400.22z M629.24,400.05c0-0.29,0.48-0.58,0.95-0.58h2.11c0.48,0,0.89,0.23,0.82,0.58
		l-0.07,1.15c0,0.35-0.48,0.58-0.95,0.58h-2.11c-0.48,0-0.89-0.29-0.82-0.58L629.24,400.05z M633.05,399.13h-2.11
		c-0.48,0-0.89-0.23-0.82-0.58l0.14-1.04c0-0.29,0.48-0.52,0.95-0.52h2.11c0.48,0,0.82,0.23,0.82,0.52l-0.07,1.04
		C633.94,398.84,633.53,399.13,633.05,399.13z M633.87,400.05c0-0.29,0.48-0.58,0.95-0.58h2.11c0.48,0,0.89,0.23,0.89,0.58
		l-0.07,1.15c0,0.35-0.48,0.58-0.95,0.58h-2.11c-0.48,0-0.89-0.29-0.89-0.58L633.87,400.05z M637.55,399.13h-2.11
		c-0.48,0-0.89-0.23-0.82-0.58l0.07-1.04c0-0.29,0.41-0.52,0.89-0.52h2.11c0.48,0,0.89,0.23,0.82,0.52l-0.07,1.04
		C638.5,398.9,638.03,399.13,637.55,399.13z M638.43,400.05c0-0.29,0.41-0.58,0.95-0.58h2.11c0.48,0,0.89,0.23,0.89,0.58l-0.07,1.15
		c0,0.35-0.41,0.58-0.95,0.58h-2.11c-0.48,0-0.89-0.29-0.89-0.58L638.43,400.05z M642.11,399.13H640c-0.48,0-0.89-0.23-0.89-0.58
		l0.07-1.04c0-0.29,0.41-0.52,0.89-0.52h2.11c0.48,0,0.89,0.23,0.89,0.52v1.04C643,398.9,642.59,399.13,642.11,399.13z M643,400.05
		c0-0.29,0.41-0.58,0.89-0.58h2.11c0.48,0,0.89,0.23,0.89,0.58v1.15c0,0.35-0.41,0.58-0.89,0.58h-2.11c-0.48,0-0.89-0.29-0.89-0.58
		V400.05z M646.67,399.13h-2.11c-0.48,0-0.89-0.23-0.89-0.58v-1.04c0-0.29,0.41-0.52,0.89-0.52h2.11c0.48,0,0.89,0.23,0.89,0.52
		v1.04C647.56,398.84,647.15,399.13,646.67,399.13z M647.56,400.05c0-0.29,0.41-0.58,0.89-0.58h2.11c0.48,0,0.89,0.23,0.89,0.58
		v1.15c0,0.35-0.41,0.58-0.89,0.58h-2.11c-0.48,0-0.89-0.29-0.89-0.58V400.05z M651.17,399.13h-2.11c-0.48,0-0.89-0.23-0.89-0.58
		v-1.04c0-0.29,0.41-0.52,0.89-0.52h2.11c0.48,0,0.89,0.23,0.89,0.52v1.04C652.05,398.9,651.71,399.13,651.17,399.13z
		 M646.27,394.98c0-0.29,0.41-0.52,0.89-0.52h2.04c0.48,0,0.89,0.23,0.89,0.52v1.04c0,0.29-0.41,0.52-0.89,0.52h-2.04
		c-0.48,0-0.89-0.23-0.89-0.52V394.98z M641.84,394.98c0-0.29,0.41-0.52,0.89-0.52h2.04c0.48,0,0.89,0.23,0.82,0.52v1.04
		c0,0.29-0.41,0.52-0.89,0.52h-2.11c-0.48,0-0.89-0.23-0.82-0.52L641.84,394.98z M637.55,394.98c0-0.29,0.41-0.52,0.89-0.52h1.97
		c0.48,0,0.82,0.23,0.82,0.52l-0.07,1.04c0,0.29-0.41,0.52-0.89,0.52h-1.97c-0.48,0-0.82-0.23-0.82-0.52L637.55,394.98z
		 M633.12,394.98c0-0.29,0.41-0.52,0.89-0.52h1.97c0.48,0,0.82,0.23,0.82,0.52l-0.07,1.04c0,0.29-0.41,0.52-0.89,0.52h-1.97
		c-0.48,0-0.82-0.23-0.82-0.52L633.12,394.98z M628.56,394.98c0-0.29,0.48-0.52,0.89-0.52h2.04c0.48,0,0.82,0.23,0.82,0.52
		l-0.07,1.04c0,0.29-0.41,0.52-0.89,0.52h-2.11c-0.48,0-0.82-0.23-0.82-0.52L628.56,394.98z M624,396.02l0.14-1.04
		c0.07-0.29,0.48-0.52,0.95-0.52h2.04c0.48,0,0.82,0.23,0.82,0.52l-0.14,1.04c-0.07,0.29-0.48,0.52-0.95,0.52h-2.11
		C624.27,396.53,623.93,396.3,624,396.02z M620.12,396.07l0.2-1.15c0.07-0.29,0.41-0.46,0.89-0.46h1.57c0.41,0,0.75,0.23,0.68,0.46
		l-0.14,1.15c0,0.29-0.41,0.46-0.89,0.46h-1.57C620.39,396.53,620.12,396.36,620.12,396.07z M619.77,398.44l0.14-0.86
		c0.07-0.35,0.54-0.63,1.09-0.63h3.13c0.54,0,0.95,0.29,0.95,0.63l-0.14,0.86c-0.07,0.35-0.54,0.63-1.09,0.63h-3.2
		C620.12,399.07,619.71,398.78,619.77,398.44z M619.3,401.32l0.2-1.33c0.07-0.23,0.41-0.46,0.82-0.46h1.16
		c0.41,0,0.68,0.23,0.68,0.46l-0.2,1.33c-0.07,0.23-0.41,0.46-0.82,0.46h-1.23C619.57,401.78,619.23,401.55,619.3,401.32z
		 M624.95,402.87l-0.14,0.92c-0.07,0.4-0.61,0.75-1.23,0.75h-3.68c-0.61,0-1.09-0.35-1.02-0.75l0.14-0.92
		c0.07-0.4,0.61-0.69,1.23-0.69h3.68C624.54,402.18,625.02,402.47,624.95,402.87z M630.88,403.8c-0.07,0.4-0.54,0.69-1.09,0.69h-3.2
		c-0.61,0-1.02-0.29-0.95-0.69l0.14-0.98c0.07-0.35,0.54-0.69,1.16-0.69h3.13c0.54,0,1.02,0.29,0.95,0.69L630.88,403.8z
		 M654.78,412.96h-12.53c-0.82,0-1.5-0.46-1.43-1.04l0.2-5.07c0-0.52,0.68-0.92,1.5-0.92h12.12c0.82,0,1.43,0.4,1.5,0.92l0.2,5.07
		C656.28,412.5,655.6,412.96,654.78,412.96z M660.02,404.54h-27.72c-0.48,0-0.82-0.23-0.82-0.58l0.14-1.27
		c0-0.29,0.41-0.52,0.89-0.52h27.38c0.48,0,0.89,0.23,0.89,0.52l0.07,1.27C660.84,404.26,660.5,404.54,660.02,404.54z
		 M664.65,404.54h-2.18c-0.48,0-0.95-0.29-0.95-0.58l-0.07-1.15c0-0.35,0.34-0.58,0.89-0.58h2.11c0.48,0,0.95,0.29,0.95,0.58
		l0.14,1.15C665.54,404.26,665.13,404.54,664.65,404.54z M662.47,401.78c-0.61,0-1.16-0.35-1.16-0.69l-0.07-0.86
		c0-0.4,0.48-0.69,1.02-0.69h3.61c0.61,0,1.16,0.29,1.16,0.69l0.07,0.86c0.07,0.4-0.41,0.69-1.02,0.69H662.47z M672.35,404.49h-4.84
		c-0.68,0-1.29-0.35-1.29-0.81l-0.07-0.75c-0.07-0.46,0.48-0.81,1.16-0.81h4.84c0.68,0,1.29,0.35,1.36,0.81l0.07,0.75
		C673.51,404.14,673.03,404.49,672.35,404.49z M677.32,404.49h-2.18c-0.48,0-0.95-0.29-1.02-0.58l-0.14-1.15
		c-0.07-0.35,0.34-0.58,0.82-0.58h2.18c0.48,0,0.95,0.29,1.02,0.58l0.2,1.15C678.2,404.2,677.86,404.49,677.32,404.49z"/>
</g>
<rect x="457.86" y="322.07" class="st1" width="69.92" height="27.59"/>
<text transform="matrix(1 0 0 1 465.2541 340.3634)" class="st2 st3">Controller</text>
<g>
	<circle class="st4" cx="348.38" cy="272.74" r="4.72"/>
	<line class="st5" x1="336.38" y1="277.47" x2="360.38" y2="277.47"/>
</g>
<g>
	<circle class="st4" cx="424.4" cy="272.62" r="4.72"/>
	<line class="st5" x1="412.4" y1="277.34" x2="436.4" y2="277.34"/>
</g>
<g>
	<g>
		<polyline class="st5" points="348.38,277.47 348.38,335.86 450.8,335.86 		"/>
		<g>
			<polygon points="457.86,335.86 447.91,339.93 450.27,335.86 447.91,331.8 			"/>
		</g>
	</g>
</g>
<circle class="st6" cx="400.47" cy="218.84" r="11.97"/>
<path class="st5" d="M419.02,193.64c13.15,14.69,11.9,37.26-2.79,50.41"/>
<path class="st5" d="M428.58,181.81c19.3,21.6,17.42,54.76-4.18,74.06"/>
<path class="st5" d="M442.84,173.53c19.3,26.44,17.42,67.01-4.18,90.63"/>
<g>
	<polygon class="st5" points="619.33,170.23 603.04,180.13 603.04,199.92 619.33,209.81 	"/>
	<rect x="594.62" y="180.13" class="st7" width="8.42" height="19.54"/>
</g>
<g>
	<polygon class="st5" points="619.33,252.95 603.04,262.85 603.04,282.64 619.33,292.53 	"/>
	<rect x="594.62" y="262.85" class="st7" width="8.42" height="19.54"/>
</g>
<path class="st7" d="M527.78,335.86"/>
<g>
	<g>
		<polyline class="st5" points="492.82,322.07 492.82,272.74 587.56,272.74 		"/>
		<g>
			<polygon points="594.62,272.74 584.67,276.81 587.03,272.74 584.67,268.68 			"/>
		</g>
	</g>
</g>
<path class="st7" d="M548.55,286.09"/>
<rect x="670.44" y="245.83" class="st8" width="37.98" height="0"/>
<text transform="matrix(1 0 0 1 592.1785 233.6102)" class="st2 st9">……</text>
<g>
	<g>
		<polyline class="st5" points="566.69,272.74 566.69,189.9 586.58,189.9 		"/>
		<g>
			<polygon points="593.64,189.9 583.69,193.96 586.05,189.9 583.69,185.83 			"/>
		</g>
	</g>
</g>
<g>
	<circle class="st10" cx="686.98" cy="189.9" r="4.72"/>
	<line class="st5" x1="691.7" y1="201.9" x2="691.7" y2="177.9"/>
</g>
<g>
	<circle class="st10" cx="686.98" cy="272.62" r="4.72"/>
	<line class="st5" x1="691.7" y1="284.62" x2="691.7" y2="260.62"/>
</g>
<g>
	<g>
		<polyline class="st5" points="534.84,335.86 720.9,335.86 720.9,272.74 691.7,272.62 		"/>
		<g>
			<polygon points="527.78,335.86 537.73,339.93 535.37,335.86 537.73,331.8 			"/>
		</g>
	</g>
</g>
<polyline class="st5" points="691.7,189.9 720.9,190.02 720.9,272.74 "/>
<text transform="matrix(1 0 0 1 672.9421 233.61)" class="st2 st9">……</text>
<text transform="matrix(1 0 0 1 356.1033 297.6378)"><tspan x="0" y="0" class="st2 st3">Reference</tspan><tspan x="0" y="14.4" class="st2 st3">sensors</tspan></text>
<text transform="matrix(1 0 0 1 371.058 272.7426)" class="st2 st9">……</text>
<line class="st11" x1="424.4" y1="277.34" x2="424.4" y2="335.86"/>
<text transform="matrix(1 0 0 1 337.6307 213.9211)"><tspan x="0" y="0" class="st2 st3">Noise</tspan><tspan x="0" y="14.4" class="st2 st3">source</tspan></text>
<text transform="matrix(1 0 0 1 570.8497 306.9971)"><tspan x="0" y="0" class="st2 st3">Secondary</tspan><tspan x="0" y="14.4" class="st2 st3">sources</tspan></text>
<text transform="matrix(1 0 0 1 472.6381 223.4077)" class="st2 st3">Acoustic path</text>
<text transform="matrix(1 0 0 1 507.0936 399.0699)" class="st2 st3">Communicate</text>
<text transform="matrix(1 0 0 1 673.1025 305.4056)"><tspan x="0" y="0" class="st2 st3">Error</tspan><tspan x="0" y="14.4" class="st2 st3">sensors</tspan></text>
<text transform="matrix(1 0 0 1 619.7675 351.8689)" class="st2 st3">Computer</text>
<g>
	<g>
		<polyline class="st5" points="492.82,352.48 492.82,409.44 608.36,409.44 		"/>
		<g>
			<polygon points="489.64,358.39 490.58,358.73 492.82,352.58 495.06,358.73 496,358.39 492.82,349.66 			"/>
		</g>
		<g>
			<polygon points="602.45,412.62 602.11,411.68 608.26,409.44 602.11,407.2 602.45,406.26 611.19,409.44 			"/>
		</g>
	</g>
</g>
<g>
	<g>
		<line class="st5" x1="348.38" y1="377.96" x2="365.38" y2="377.96"/>
		<g>
			<polygon points="372.44,377.96 362.49,382.03 364.85,377.96 362.49,373.9 			"/>
		</g>
	</g>
</g>
<text transform="matrix(1 0 0 1 348.3793 399.6256)" class="st2 st3">Audio signal flow</text>
<rect x="341.62" y="366.83" class="st12" width="117.55" height="39.24"/>
<path class="st5" d="M635.64,164.82c13.15,14.69,11.9,37.26-2.79,50.41"/>
<path class="st5" d="M628.65,174.12c8.23,9.19,7.45,23.32-1.74,31.55"/>
<path class="st5" d="M635.87,247.73c13.15,14.69,11.9,37.26-2.79,50.41"/>
<path class="st5" d="M628.88,257.04c8.23,9.19,7.45,23.32-1.74,31.55"/>
</svg>
